<svg width="141.732" height="141.732" xmlns="http://www.w3.org/2000/svg">

 <g>
  <title>background</title>
  <rect fill="none" id="canvas_background" height="402" width="582" y="-1" x="-1"/>
 </g>
 <g>
  <title>Layer 1</title>
  <path fill="#b1d2db" id="svg_1" d="m91.562996,70.870995l39.834007,34.146004l-3.627007,3.626999l-40.136993,-34.403999l-16.747002,14.355003l-16.550999,-14.188004l-39.933001,34.231995l-3.807,-3.806999l39.614001,-33.961998l-39.820001,-34.137997l3.627,-3.627003l56.675999,48.587006l12.817001,-10.988007l-0.035004,-0.031998l0.072998,0l43.829002,-37.575001l3.810997,3.811001l-39.624001,33.962997zm49.459999,37.777l0,-75.548996c0,-2.988001 -2.416,-5.411001 -5.395996,-5.411001c-0.020996,0 -0.041,0.003 -0.061996,0.004c-0.020996,-0.000999 -0.042007,-0.004 -0.063004,-0.004c-0.332993,0 -0.654999,0.035 -0.975006,0.098l0,-0.08l-122.65999,0l0,-0.007999l-5.594,0c-0.056,-0.003 -0.111,-0.01 -0.168,-0.01c-0.02,0 -0.041,0.003 -0.062,0.004c-0.022,-0.000999 -0.041,-0.004 -0.063,-0.004c-2.912,0 -5.271,2.365999 -5.271,5.283998c0,0.021 0.003,0.042004 0.003,0.063c0,0.021004 -0.003,0.043003 -0.003,0.064003l0,75.548996c0,2.979004 2.416,5.396004 5.396,5.396004l129.521005,0c2.980988,-0.000999 5.396988,-2.417 5.396988,-5.396004"/>
 </g>
</svg>